<svg version="1" xmlns="http://www.w3.org/2000/svg" viewBox="0 0 32 20"><path d="M29 0H3C1.35 0 0 1.35 0 3v14c0 1.65 1.35 3 3 3h26c1.65 0 3-1.35 3-3V3c0-1.65-1.35-3-3-3zM14.403 15.854c-.545.108-1.104.164-1.678.164-.694 0-1.354-.107-1.976-.323-.624-.214-1.173-.562-1.647-1.04s-.852-1.104-1.133-1.87c-.28-.765-.42-1.694-.42-2.785 0-1.134.158-2.085.472-2.85.315-.77.723-1.385 1.224-1.855.502-.468 1.062-.804 1.68-1.008.615-.204 1.232-.307 1.85-.307.66 0 1.22.045 1.68.134.456.087.834.192 1.132.313l-.448 1.92c-.254-.12-.555-.21-.902-.265C13.89 6.027 13.47 6 12.973 6c-.915 0-1.65.325-2.206.977-.558.65-.836 1.663-.836 3.03 0 .6.068 1.143.2 1.633.132.493.334.913.603 1.26.27.35.607.62 1.01.812.402.193.867.29 1.396.29.495 0 .914-.05 1.256-.148.342-.1.64-.227.893-.38l.462 1.84c-.354.25-.803.43-1.35.54zm8.698 0c-.544.108-1.104.164-1.677.164-.694 0-1.354-.107-1.976-.323-.623-.214-1.172-.562-1.646-1.04s-.85-1.104-1.132-1.87c-.28-.766-.42-1.694-.42-2.785 0-1.134.156-2.085.47-2.85.314-.77.723-1.385 1.223-1.855.503-.468 1.063-.804 1.68-1.008.617-.204 1.234-.307 1.852-.307.66 0 1.22.045 1.678.134.458.087.836.192 1.133.313l-.446 1.918c-.253-.12-.554-.21-.9-.265-.35-.053-.77-.08-1.267-.08-.915 0-1.65.325-2.206.977-.558.65-.836 1.663-.836 3.03 0 .6.067 1.143.2 1.633.13.493.333.913.602 1.26.27.35.606.62 1.01.812.4.193.867.29 1.395.29.497 0 .915-.05 1.257-.148.342-.1.64-.227.894-.38l.463 1.84c-.354.25-.804.43-1.35.54z"/></svg>